# xmcd
#
# Track frame offsets: 
#        150
#        15674
#        34634
#        41028
#        55879
#        74558
#        87255
#        108845
#        128684
#        143393
#        156752
#        177711
#        189142
#
# Disc length: 2899 seconds
#
# Revision: 1
# Processed by: cddbd v1.5.2PL0 Copyright (c) Steve Scherf et al.
# Submitted via: ExactAudioCopy v0.99pb3
#
DISCID=a60b510d
DTITLE=Mad EP - Not Afraid of Spiders
DYEAR=2006
DGENRE=Breakbeat
TTITLE0=Acid Gig
TTITLE1=Fit To Die [Still Standing remix]
TTITLE2=Loco's Crib
TTITLE3=Stealing Your Last Breath
TTITLE4=Nicoffeine
TTITLE5=Smiling In Gridlock
TTITLE6=Velvet Pudding Mold
TTITLE7=Retner Mantis Bass
TTITLE8=Underbite
TTITLE9=Watch Yo Step [Damn EP mix]
TTITLE10=60202 Strut
TTITLE11=Exitus
TTITLE12=Deconstruct This
EXTD=
EXTT0=
EXTT1=
EXTT2=
EXTT3=
EXTT4=
EXTT5=
EXTT6=
EXTT7=
EXTT8=
EXTT9=
EXTT10=
EXTT11=
EXTT12=
PLAYORDER=
